<svg version="1.2" xmlns="http://www.w3.org/2000/svg" viewBox="0 0 261 133" width="261" height="133">
	<title>Logo-01-negro-svg</title>
	<defs>
		<clipPath clipPathUnits="userSpaceOnUse" id="cp1">
			<path d="m10 15h38v104h-38z"/>
		</clipPath>
	</defs>
	<style>
		.s0 { fill: #000000 } 
		.s1 { fill: #020202 } 
	</style>
	<g id="Layer">
		<g id="Layer">
			<g id="Layer">
				<path id="Layer" class="s0" d="m98.7 43.9l1.7 30.5h-2.9l-1.1-16.8q-0.1-1.5-0.2-3.2-0.1-1.8-0.1-3.4 0-1.6-0.1-2.8 0-1.1 0-1.6l-5.7 22.3h-3.4l-6-22.3q0 0.5 0 1.7 0 1.2 0 2.9 0 1.6-0.1 3.3 0 1.7-0.1 3l-1 16.9h-2.8l1.7-30.5h4.7l5.4 21.3 5.2-21.3z"/>
			</g>
		</g>
	</g>
	<g id="Layer">
		<g id="Layer">
			<g id="Layer">
				<path id="Layer" fill-rule="evenodd" class="s0" d="m117.9 69.8q0 1.4 0.5 2.1 0.5 0.7 1.5 1l-0.7 2q-1.4-0.2-2.4-1-1-0.8-1.5-2.4-1.2 1.7-3 2.5-1.9 0.9-4.2 0.9-3.4 0-5.4-2-2-2-2-5.2 0-3.6 2.8-5.4 2.8-1.9 8-1.9h3.6v-2.3q0-2.7-1.6-3.8-1.6-1.1-4.3-1.1-1.1 0-2.6 0.2-1.5 0.3-3.3 1l-0.8-2.3q2.1-0.8 3.8-1.1 1.7-0.3 3.3-0.3 4.1 0 6.2 2 2.1 2 2.1 5.3zm-9.2 2.9q1.9 0 3.5-1 1.7-0.9 2.9-2.6v-6.6h-3.9q-4.1 0-5.8 1.4-1.6 1.5-1.6 3.9 0 2.4 1.2 3.6 1.2 1.3 3.7 1.3z"/>
			</g>
		</g>
	</g>
	<g id="Layer">
		<g id="Layer">
			<g id="Layer">
				<path id="Layer" class="s0" d="m141.8 73.3q-1.1 0.8-2.8 1.1-1.6 0.4-3 0.5-3.5 0-5.5-1.9-2-1.9-2-4.7v-14.9h-5.5v-2.3h5.5v-5.4l2.8-0.3v5.7h8.2l-0.4 2.3h-7.8v14.8q0 2.1 1 3.2 1.1 1.1 3.8 1.1 1.3 0 2.4-0.4 1.1-0.3 2.1-0.8z"/>
			</g>
		</g>
	</g>
	<g id="Layer">
		<g id="Layer">
			<g id="Layer">
				<path id="Layer" fill-rule="evenodd" class="s0" d="m148 63.9q0 2.9 1 4.8 1 1.9 2.6 2.7 1.6 0.9 3.6 0.9 1.8 0 3.2-0.5 1.5-0.5 3-1.6l1.5 2q-1.6 1.3-3.7 2-2 0.6-3.9 0.7-3.3 0-5.6-1.5-2.3-1.6-3.5-4.3-1.2-2.7-1.2-6.3 0-3.6 1.2-6.3 1.3-2.7 3.5-4.3 2.2-1.5 5.1-1.5 2.9 0 4.9 1.4 2 1.3 3.1 3.9 1.1 2.5 1.1 6 0 0.6 0 1-0.1 0.5-0.1 0.9zm7-10.6q-2.9 0-4.8 2-1.9 2-2.1 6.1h13.2q-0.1-4.1-1.8-6.1-1.8-2-4.5-2z"/>
			</g>
		</g>
	</g>
	<g id="Layer">
		<g id="Layer">
			<g id="Layer">
				<path id="Layer" fill-rule="evenodd" class="s0" d="m176.4 50.7q3.2 0 5.3 1.5 2.2 1.5 3.2 4.2 1.1 2.7 1.1 6.4 0 3.4-1.1 6.2-1.1 2.7-3.2 4.3-2.2 1.6-5.4 1.6-3.1 0-5.3-1.6-2.1-1.5-3.2-4.2-1.1-2.7-1.1-6.3 0-3.6 1.1-6.3 1.1-2.7 3.2-4.3 2.2-1.5 5.4-1.5zm0 2.4q-3.3 0-5 2.4-1.7 2.4-1.7 7.3 0 4.8 1.7 7.2 1.7 2.4 4.9 2.4 3.3 0 5-2.4 1.7-2.4 1.7-7.2 0-4.9-1.7-7.3-1.6-2.4-4.9-2.4z"/>
			</g>
		</g>
	</g>
	<g id="Clip-Path" clip-path="url(#cp1)">
		<g id="Layer">
			<path id="Layer" class="s0" d="m46.5 115.4c-4.7-0.5-10.2 1.4-14.6-1.3-4.2-2.6-3.8-8.7-3.6-13 0.4-9.7 2.7-21.3-3.9-29.6-1.6-2-3.6-3.6-5.8-4.6 1.4-0.7 2.8-1.7 3.9-2.9 3.4-3.4 5.3-8 6-12.7 0.8-5.3 0.3-10.6-0.1-16-0.2-2.7-0.4-5.5-0.2-8.2 0.1-2 0.3-4.4 1.7-5.9 1.6-1.8 4.3-2.3 6.6-2.3 3-0.1 6.1 0.4 9.1 0 1.2-0.2 2.2-3.2 0.6-3-4.8 0.6-9.8-1-14.4 1.1-4.4 2.1-5.8 6.9-6 11.4-0.2 5.5 0.6 11 0.8 16.5 0.1 4.9-0.3 10.1-2.8 14.3-2.5 4.2-7.1 6.9-11.9 6.3-1.1-0.2-2.2 1.9-1.6 2.7 0 0.4 0.2 0.8 0.8 0.7 4.4-0.6 8.6 1.7 11.3 5.1 3.1 3.8 4.1 8.9 4.3 13.7 0.2 5.4-0.7 10.8-0.8 16.2-0.1 4.4-0.1 9.8 3.8 12.7 4.6 3.3 10.6 1.2 15.7 1.8 1.3 0.2 2.6-2.8 1.1-3z"/>
		</g>
	</g>
	<path id="Layer" class="s0" d="m215.4 115.4c4.8-0.5 10.3 1.4 14.7-1.3 4.2-2.6 3.8-8.7 3.6-13-0.5-9.7-2.8-21.3 3.9-29.6 1.5-2 3.5-3.6 5.8-4.6-1.5-0.7-2.8-1.7-4-2.9-3.3-3.4-5.2-8-5.9-12.7-0.9-5.3-0.3-10.6 0.1-16 0.1-2.7 0.3-5.5 0.2-8.2-0.1-2-0.3-4.4-1.7-5.9-1.6-1.8-4.3-2.3-6.6-2.3-3.1-0.1-6.1 0.4-9.2 0-1.2-0.2-2.2-3.2-0.5-3 4.8 0.6 9.7-1 14.3 1.1 4.4 2.1 5.8 6.9 6 11.4 0.3 5.5-0.6 11-0.7 16.5-0.2 4.9 0.3 10.1 2.8 14.3 2.4 4.2 7.1 6.9 11.9 6.3 1-0.2 2.1 1.9 1.6 2.7 0 0.4-0.3 0.8-0.9 0.7-4.3-0.6-8.5 1.7-11.2 5.1-3.1 3.8-4.1 8.9-4.3 13.7-0.2 5.4 0.6 10.8 0.8 16.2 0.1 4.4 0 9.8-3.9 12.7-4.5 3.3-10.5 1.2-15.7 1.8-1.2 0.2-2.5-2.8-1.1-3z"/>
	<g id="Layer">
		<g id="Layer">
			<g id="Layer">
				<path id="Layer" fill-rule="evenodd" class="s1" d="m68.6 85.6q0 1-0.4 1.5-0.4 0.6-1.2 0.9-0.7 0.2-1.6 0.2h-1.2v3.3h-0.8v-8.5h2q1.5 0 2.3 0.6 0.9 0.6 0.9 2zm-0.9 0q0-0.7-0.2-1.2-0.3-0.4-0.8-0.6-0.5-0.1-1.1-0.1h-1.4v3.9h1.3q0.7 0 1.2-0.2 0.5-0.2 0.8-0.6 0.2-0.4 0.2-1.2z"/>
			</g>
		</g>
	</g>
	<g id="Layer">
		<g id="Layer">
			<g id="Layer">
				<path id="Layer" fill-rule="evenodd" class="s1" d="m69.3 91.5v-0.7h1.1v-5.2h-1.1v-0.6h1.6l0.2 1.6q0.4-0.8 0.9-1.3 0.5-0.4 1.4-0.4 0.3 0 0.5 0 0.2 0 0.4 0.1h-0.8v0.6q-0.1 0-0.1 0-0.8 0-1.4 0.5-0.5 0.6-0.9 1.7v3h1.4v0.7zm4.8-5.8q-0.3 0-0.4-0.1-0.1 0-0.2 0l-0.1 0.2v1.2h0.8l0.1-2z"/>
			</g>
		</g>
	</g>
	<g id="Layer">
		<g id="Layer">
			<g id="Layer">
				<path id="Layer" fill-rule="evenodd" class="s1" d="m77.7 84.9q0.9 0 1.5 0.4 0.6 0.4 0.9 1.2 0.3 0.7 0.3 1.7 0 1-0.3 1.8-0.3 0.7-0.9 1.2-0.6 0.4-1.5 0.4-0.9 0-1.5-0.4-0.6-0.4-0.9-1.2-0.3-0.8-0.3-1.7 0-1 0.3-1.8 0.3-0.8 0.9-1.2 0.6-0.4 1.5-0.4zm0 0.7q-0.9 0-1.4 0.6-0.5 0.7-0.5 2.1 0 1.3 0.5 2 0.5 0.6 1.4 0.6 0.9 0 1.4-0.6 0.4-0.7 0.4-2.1 0-1.3-0.4-2-0.5-0.6-1.4-0.6z"/>
			</g>
		</g>
	</g>
	<g id="Layer">
		<g id="Layer">
			<g id="Layer">
				<path id="Layer" fill-rule="evenodd" class="s1" d="m86.5 84.4l0.3 0.9q-0.4 0.1-0.9 0.1-0.4 0-1 0 0.6 0.3 0.8 0.7 0.3 0.4 0.3 0.9 0 0.7-0.3 1.2-0.2 0.5-0.8 0.8-0.5 0.3-1.2 0.3-0.4 0-0.6-0.1-0.2 0-0.5-0.1-0.1 0.1-0.2 0.3-0.1 0.2-0.1 0.4 0 0.3 0.2 0.4 0.2 0.2 0.7 0.2h1.2q0.6 0 1.1 0.2 0.5 0.3 0.8 0.7 0.3 0.3 0.3 0.8 0 1-0.8 1.5-0.8 0.5-2.2 0.5-0.9 0-1.5-0.3-0.6-0.2-0.8-0.6-0.3-0.4-0.3-1.1h0.7q0 0.4 0.2 0.7 0.1 0.3 0.5 0.4 0.4 0.1 1.2 0.1 0.7 0 1.2-0.1 0.5-0.1 0.8-0.4 0.2-0.2 0.2-0.6 0-0.5-0.5-0.8-0.4-0.2-1.1-0.2h-1.2q-0.8 0-1.1-0.4-0.4-0.4-0.4-0.8 0-0.3 0.2-0.6 0.1-0.3 0.5-0.5-0.5-0.3-0.8-0.8-0.3-0.4-0.3-1 0-0.6 0.3-1.1 0.4-0.5 0.9-0.8 0.6-0.3 1.3-0.3 0.9 0 1.4-0.1 0.5 0 0.8-0.1 0.4-0.1 0.7-0.3zm-2.9 1.1q-0.9 0-1.3 0.5-0.4 0.4-0.4 1.1 0 0.7 0.4 1.2 0.4 0.4 1.3 0.4 0.8 0 1.2-0.4 0.4-0.4 0.4-1.2 0-0.8-0.4-1.2-0.4-0.4-1.2-0.4z"/>
			</g>
		</g>
	</g>
	<g id="Layer">
		<g id="Layer">
			<g id="Layer">
				<path id="Layer" fill-rule="evenodd" class="s1" d="m87.6 91.5v-0.7h1v-5.2h-1v-0.6h1.6l0.2 1.6q0.3-0.8 0.9-1.3 0.5-0.4 1.4-0.4 0.3 0 0.5 0 0.2 0 0.4 0.1h-0.8v0.6q-0.1 0-0.2 0-0.8 0-1.3 0.5-0.6 0.6-0.9 1.7v3h1.3v0.7zm4.8-5.8q-0.2 0-0.3-0.1-0.1 0-0.3 0v0.2 1.2h0.8v-2z"/>
			</g>
		</g>
	</g>
	<g id="Layer">
		<g id="Layer">
			<g id="Layer">
				<path id="Layer" fill-rule="evenodd" class="s1" d="m98 90.2q0 0.4 0.1 0.6 0.2 0.2 0.5 0.2l-0.2 0.6q-0.4 0-0.7-0.3-0.3-0.2-0.4-0.6-0.4 0.4-0.9 0.7-0.5 0.2-1.1 0.2-1 0-1.5-0.5-0.6-0.6-0.6-1.5 0-1 0.8-1.5 0.8-0.5 2.2-0.5h1v-0.7q0-0.7-0.4-1-0.5-0.3-1.2-0.3-0.3 0-0.8 0-0.4 0.1-0.9 0.3l-0.2-0.6q0.6-0.2 1.1-0.3 0.4-0.1 0.9-0.1 1.1 0 1.7 0.5 0.6 0.6 0.6 1.5zm-2.6 0.8q0.6 0 1-0.2 0.5-0.3 0.8-0.8v-1.8h-1.1q-1.1 0-1.6 0.4-0.4 0.4-0.4 1 0 0.7 0.3 1.1 0.3 0.3 1 0.3z"/>
			</g>
		</g>
	</g>
	<g id="Layer">
		<g id="Layer">
			<g id="Layer">
				<path id="Layer" class="s1" d="m103.8 84.9q0.3 0 0.5 0.1 0.3 0.1 0.5 0.5 0.2 0.4 0.2 1.1v4.9h-0.7v-4.7q0-0.7-0.1-1-0.1-0.3-0.5-0.3-0.3 0-0.6 0.2-0.3 0.2-0.6 0.7v5.1h-0.9v-4.7q0-0.7-0.1-1 0-0.3-0.4-0.3-0.4 0-0.7 0.2-0.3 0.2-0.6 0.7v5.1h-0.8v-6.5h0.7v0.8q0.3-0.4 0.6-0.6 0.4-0.3 0.8-0.3 0.4 0 0.8 0.2 0.3 0.1 0.5 0.7 0.2-0.4 0.6-0.7 0.3-0.2 0.8-0.2z"/>
			</g>
		</g>
	</g>
	<g id="Layer">
		<g id="Layer">
			<g id="Layer">
				<path id="Layer" fill-rule="evenodd" class="s1" d="m110.2 90.2q0 0.4 0.1 0.6 0.2 0.2 0.4 0.2l-0.2 0.6q-0.3 0-0.6-0.3-0.3-0.2-0.4-0.6-0.4 0.4-0.9 0.7-0.5 0.2-1.1 0.2-1 0-1.5-0.5-0.6-0.6-0.6-1.5 0-1 0.8-1.5 0.7-0.5 2.2-0.5h1v-0.7q0-0.7-0.4-1-0.5-0.3-1.2-0.3-0.4 0-0.8 0-0.4 0.1-0.9 0.3l-0.2-0.6q0.6-0.2 1-0.3 0.5-0.1 1-0.1 1.1 0 1.7 0.5 0.6 0.6 0.6 1.5zm-2.6 0.8q0.5 0 1-0.2 0.5-0.3 0.8-0.8v-1.8h-1.1q-1.1 0-1.6 0.4-0.5 0.4-0.5 1 0 0.7 0.4 1.1 0.3 0.3 1 0.3z"/>
			</g>
		</g>
	</g>
	<g id="Layer">
		<g id="Layer">
			<g id="Layer">
				<path id="Layer" fill-rule="evenodd" class="s1" d="m115.8 82.3l0.8 0.1v9.1h-0.7l-0.1-0.9q-0.4 0.5-0.9 0.8-0.4 0.2-0.9 0.2-0.9 0-1.5-0.4-0.5-0.4-0.8-1.2-0.2-0.8-0.2-1.7 0-1 0.3-1.8 0.3-0.7 0.8-1.2 0.6-0.4 1.4-0.4 0.6 0 1 0.2 0.5 0.2 0.8 0.6zm-1.6 3.3q-0.9 0-1.4 0.6-0.5 0.7-0.5 2.1 0 0.8 0.2 1.4 0.2 0.6 0.6 0.9 0.4 0.4 1 0.3 0.6 0 1-0.3 0.4-0.3 0.7-0.7v-3.4q-0.3-0.5-0.7-0.7-0.4-0.2-0.9-0.2z"/>
			</g>
		</g>
	</g>
	<g id="Layer">
		<g id="Layer">
			<g id="Layer">
				<path id="Layer" fill-rule="evenodd" class="s1" d="m120.3 84.9q0.9 0 1.5 0.4 0.6 0.4 0.9 1.2 0.3 0.7 0.3 1.7 0 1-0.3 1.8-0.3 0.7-0.9 1.2-0.6 0.4-1.5 0.4-0.9 0-1.5-0.4-0.6-0.4-0.9-1.2-0.3-0.8-0.3-1.7 0-1 0.3-1.8 0.3-0.8 0.9-1.2 0.6-0.4 1.5-0.4zm0 0.7q-0.9 0-1.4 0.6-0.4 0.7-0.4 2.1 0 1.3 0.4 2 0.5 0.6 1.4 0.6 0.9 0 1.4-0.6 0.4-0.7 0.4-2.1 0-1.3-0.4-2-0.5-0.6-1.4-0.6z"/>
			</g>
		</g>
	</g>
	<g id="Layer">
		<g id="Layer">
			<g id="Layer">
				<path id="Layer" fill-rule="evenodd" class="s1" d="m124.1 91.5v-0.7h1.1v-5.2h-1.1v-0.6h1.7l0.1 1.6q0.4-0.8 0.9-1.3 0.5-0.4 1.5-0.4 0.2 0 0.4 0 0.2 0 0.4 0.1h-0.8v0.6q-0.1 0-0.1 0-0.8 0-1.4 0.5-0.5 0.6-0.9 1.7v3h1.4v0.7zm4.8-5.8q-0.3 0-0.4-0.1-0.1 0-0.2 0v0.2 1.2h0.7l0.1-2z"/>
			</g>
		</g>
	</g>
	<g id="Layer">
		<g id="Layer">
			<g id="Layer">
			</g>
		</g>
	</g>
	<g id="Layer">
		<g id="Layer">
			<g id="Layer">
				<path id="Layer" fill-rule="evenodd" class="s1" d="m140.2 82.3l0.7 0.1v9.1h-0.6l-0.1-0.9q-0.4 0.5-0.9 0.8-0.5 0.2-1 0.2-0.8 0-1.4-0.4-0.6-0.4-0.8-1.2-0.3-0.8-0.3-1.7 0-1 0.3-1.8 0.3-0.7 0.9-1.2 0.6-0.4 1.4-0.4 0.5 0 1 0.2 0.4 0.2 0.8 0.6zm-1.7 3.3q-0.9 0-1.3 0.6-0.5 0.7-0.5 2.1 0 0.8 0.2 1.4 0.2 0.6 0.5 0.9 0.4 0.4 1 0.3 0.6 0 1-0.3 0.5-0.3 0.8-0.7v-3.4q-0.3-0.5-0.7-0.7-0.5-0.2-1-0.2z"/>
			</g>
		</g>
	</g>
	<g id="Layer">
		<g id="Layer">
			<g id="Layer">
				<path id="Layer" fill-rule="evenodd" class="s1" d="m142.9 88.6q0 0.8 0.3 1.3 0.2 0.5 0.7 0.7 0.4 0.3 1 0.3 0.5 0 0.9-0.1 0.4-0.2 0.8-0.5l0.4 0.6q-0.4 0.3-1 0.5-0.6 0.2-1.1 0.2-0.9 0-1.5-0.4-0.7-0.4-1-1.2-0.4-0.7-0.3-1.8-0.1-0.9 0.3-1.7 0.4-0.8 1-1.2 0.6-0.4 1.4-0.4 0.8 0 1.3 0.4 0.6 0.3 0.9 1 0.3 0.8 0.3 1.7 0 0.2 0 0.3 0 0.1 0 0.3zm1.9-3q-0.8 0-1.3 0.6-0.5 0.5-0.6 1.6h3.7q0-1.1-0.5-1.6-0.5-0.6-1.3-0.6z"/>
			</g>
		</g>
	</g>
	<g id="Layer">
		<g id="Layer">
			<g id="Layer">
			</g>
		</g>
	</g>
	<g id="Layer">
		<g id="Layer">
			<g id="Layer">
				<path id="Layer" class="s1" d="m159.7 89.2q0 0.7-0.4 1.2-0.4 0.6-1 0.9-0.7 0.3-1.6 0.3-0.9 0-1.6-0.3-0.8-0.2-1.3-0.7l0.5-0.6q0.5 0.4 1 0.6 0.6 0.3 1.4 0.3 0.5 0 1-0.2 0.5-0.2 0.8-0.6 0.3-0.4 0.3-1 0-0.4-0.1-0.7-0.2-0.3-0.6-0.6-0.5-0.2-1.2-0.4-0.8-0.3-1.4-0.5-0.6-0.3-1-0.8-0.3-0.4-0.3-1.1 0-0.6 0.3-1.1 0.3-0.5 0.9-0.7 0.6-0.3 1.4-0.3 0.8 0 1.4 0.2 0.7 0.3 1.2 0.7l-0.6 0.6q-0.4-0.4-1-0.6-0.5-0.2-1-0.2-0.5 0-0.9 0.2-0.5 0.1-0.7 0.4-0.3 0.3-0.3 0.8 0 0.4 0.3 0.7 0.2 0.3 0.7 0.5 0.5 0.2 1.3 0.5 0.6 0.2 1.2 0.4 0.5 0.3 0.9 0.8 0.4 0.5 0.4 1.3z"/>
			</g>
		</g>
	</g>
	<g id="Layer">
		<g id="Layer">
			<g id="Layer">
				<path id="Layer" fill-rule="evenodd" class="s1" d="m163 84.9q0.8 0 1.4 0.4 0.6 0.4 0.9 1.2 0.3 0.7 0.3 1.7 0 1-0.3 1.8-0.3 0.7-0.9 1.2-0.6 0.4-1.5 0.4-0.8 0-1.4-0.4-0.6-0.4-0.9-1.2-0.3-0.8-0.3-1.7 0-1 0.3-1.8 0.3-0.8 0.9-1.2 0.6-0.4 1.5-0.4zm0 0.7q-1 0-1.4 0.6-0.5 0.7-0.5 2.1 0 1.3 0.5 2 0.4 0.6 1.3 0.6 0.9 0 1.4-0.6 0.5-0.7 0.5-2.1 0-1.3-0.5-2-0.5-0.6-1.3-0.6z"/>
			</g>
		</g>
	</g>
	<g id="Layer">
		<g id="Layer">
			<g id="Layer">
				<path id="Layer" class="s1" d="m170.4 82.3q0.5 0 0.9 0.1 0.4 0 0.7 0.2l-0.2 0.6q-0.3-0.1-0.7-0.2-0.4-0.1-0.7-0.1-0.7 0-1.1 0.3-0.4 0.3-0.4 0.9v1.4h2.2v0.7h-2.2v5.3h-0.7v-5.3h-1.7v-0.7h1.7v-1.4q0-0.5 0.3-1 0.3-0.4 0.8-0.6 0.5-0.2 1.1-0.2z"/>
			</g>
		</g>
	</g>
	<g id="Layer">
		<g id="Layer">
			<g id="Layer">
				<path id="Layer" class="s1" d="m177.7 91.2q-0.3 0.2-0.8 0.3-0.4 0.1-0.8 0.1-1 0-1.5-0.5-0.6-0.5-0.6-1.3v-4.2h-1.5v-0.6h1.5v-1.5l0.8-0.1v1.6h2.3l-0.1 0.6h-2.2v4.2q0 0.5 0.3 0.8 0.3 0.3 1 0.3 0.4 0 0.7-0.1 0.3 0 0.6-0.2z"/>
			</g>
		</g>
	</g>
	<g id="Layer">
		<g id="Layer">
			<g id="Layer">
				<path id="Layer" class="s1" d="m183.4 91.5h-1.2l-0.9-4.9-1 4.9h-1.3l-1.2-6.5h0.8l1 6 1.1-5.2h1.1l1.1 5.2 0.9-6h0.8z"/>
			</g>
		</g>
	</g>
	<g id="Layer">
		<g id="Layer">
			<g id="Layer">
				<path id="Layer" fill-rule="evenodd" class="s1" d="m189.3 90.2q0 0.4 0.2 0.6 0.1 0.2 0.4 0.2l-0.2 0.6q-0.4 0-0.7-0.3-0.3-0.2-0.4-0.6-0.3 0.4-0.8 0.7-0.5 0.2-1.2 0.2-0.9 0-1.5-0.5-0.5-0.6-0.5-1.5 0-1 0.7-1.5 0.8-0.5 2.3-0.5h1v-0.7q-0.1-0.7-0.5-1-0.4-0.3-1.2-0.3-0.3 0-0.7 0-0.4 0.1-0.9 0.3l-0.2-0.6q0.5-0.2 1-0.3 0.5-0.1 0.9-0.1 1.2 0 1.8 0.5 0.5 0.6 0.5 1.5zm-2.5 0.8q0.5 0 1-0.2 0.4-0.3 0.8-0.8v-1.8h-1.1q-1.2 0-1.6 0.4-0.5 0.4-0.5 1 0 0.7 0.3 1.1 0.4 0.3 1.1 0.3z"/>
			</g>
		</g>
	</g>
	<g id="Layer">
		<g id="Layer">
			<g id="Layer">
				<path id="Layer" fill-rule="evenodd" class="s1" d="m191.1 91.5v-0.7h1.1v-5.2h-1.1v-0.6h1.6l0.2 1.6q0.4-0.8 0.9-1.3 0.5-0.4 1.4-0.4 0.3 0 0.5 0 0.2 0 0.4 0.1h-0.8v0.6q-0.1 0-0.2 0-0.7 0-1.3 0.5-0.5 0.6-0.9 1.7v3h1.4v0.7zm4.7-5.8q-0.2 0-0.3-0.1-0.1 0-0.3 0v0.2 1.2h0.8l0.1-2z"/>
			</g>
		</g>
	</g>
	<g id="Layer">
		<g id="Layer">
			<g id="Layer">
				<path id="Layer" fill-rule="evenodd" class="s1" d="m197.7 88.6q0 0.8 0.3 1.3 0.2 0.5 0.7 0.7 0.5 0.3 1 0.3 0.5 0 0.9-0.1 0.4-0.2 0.8-0.5l0.4 0.6q-0.4 0.3-1 0.5-0.6 0.2-1.1 0.2-0.9 0-1.5-0.4-0.7-0.4-1-1.2-0.3-0.7-0.3-1.8 0-0.9 0.3-1.7 0.4-0.8 1-1.2 0.6-0.4 1.4-0.4 0.8 0 1.3 0.4 0.6 0.3 0.9 1 0.3 0.8 0.3 1.7 0 0.2 0 0.3 0 0.1 0 0.3zm1.9-3q-0.8 0-1.3 0.6-0.5 0.5-0.6 1.6h3.7q0-1.1-0.5-1.6-0.5-0.6-1.3-0.6z"/>
			</g>
		</g>
	</g>
</svg>